<svg width="193" height="21" viewBox="0 0 193 21" fill="none" xmlns="http://www.w3.org/2000/svg">
<path d="M47.1934 0.0693359L49.8115 18.0029L53.2295 0.0195312H65.3359L64.4238 4.89746H57.2451L56.3926 9.22656H63.085L62.1729 13.9814H55.6631L54.4463 20.5059H50.1768L50.1855 20.5703H44.6113L44.6025 20.5L44.1865 17.4111H37.624L36.4277 20.5186L36.4072 20.5703H30.5723L30.6025 20.5049H25.6377L23.6982 13.8184H20.3037L18.9707 20.5049H14.1826L16.9707 5.18652H11.6367L8.66699 20.5049H3.27246L6.24316 5.18652H0L0.90918 0.0800781H29.5166C31.3954 0.0801903 34.3164 2.41481 33.6377 6.64551C32.9588 10.8762 30.1628 12.5417 28.8496 12.8457L31.0645 19.5098L40.1104 0.046875L40.1318 0.000976562H47.1836L47.1934 0.0693359ZM78.3633 4.89746H71.1846L70.333 9.22656H77.0254L76.1123 13.9814H69.6025L68.3857 20.5059H63.2754L67.1689 0.0195312H79.2764L78.3633 4.89746ZM81.918 20.5059H76.7305L80.5146 0.0195312H85.5791L81.918 20.5059ZM102.368 0.0800781L101.58 5.11133H93.3379C92.9541 5.09113 92.0529 5.18368 91.5195 5.7168C90.8529 6.38347 90.6099 6.32305 90.0645 9.7168C89.519 13.1109 89.2164 14.142 89.6406 14.6875C89.9802 15.1234 90.8319 15.2324 91.2158 15.2324H99.7617L98.9131 20.4453H88.8525C87.9838 20.4655 86.0642 20.2145 85.3369 19.0508C84.4278 17.5963 83.7609 17.1715 84.5488 12.5654C85.3367 7.95933 85.7618 5.23162 87.5801 3.11035C89.3982 0.98941 91.3986 0.140682 93.3379 0.0800781C94.89 0.0316113 100.005 0.0598772 102.368 0.0800781ZM42.4121 5.0918L39.4424 12.5029L39.3975 12.6123H43.6094L43.5967 12.5215L42.5664 5.11133L42.5244 4.81152L42.4121 5.0918ZM21.7402 5.1709L20.9521 9.12207L20.9336 9.21777H26.4863V9.21875L26.4941 9.21777C26.9662 9.17238 27.6845 8.6681 28.0186 7.27246C28.2031 6.50127 28.1392 5.99002 27.9912 5.65527C27.8429 5.32032 27.6147 5.17048 27.4893 5.11328L27.4736 5.10645H21.7529L21.7402 5.1709Z" fill="#00CFFF"/>
<path d="M169.953 0C170.374 0.0299565 170.988 0.0485901 171.635 0.3125C172.286 0.577951 172.967 1.08995 173.532 2.0957C173.962 2.86208 174.346 3.81219 174.361 5.57812C174.376 7.34072 174.026 9.91776 172.995 13.9385C172.165 17.1747 170.528 18.8283 168.595 19.667C166.67 20.5023 164.459 20.5254 162.492 20.5254H154.578L154.594 20.4307L158.231 0.0664062L158.243 0H169.953ZM117.975 10.1406L122.531 0.0195312H130.915L127.512 20.5059H122.531L124.9 6.42188L117.975 20.5059H114.756L112.811 5.68945L110.078 20.5059H104.974L108.802 0.0195312H117.306L117.975 10.1406ZM134.334 20.5059H129.218L132.95 0.0195312H137.946L134.334 20.5059ZM149.785 10.2324L151.779 0.0195312H156.613L153.048 20.5059H148.395L143.319 9.07715L141.325 20.5059H136.249L139.934 0.0195312H145.253L149.785 10.2324ZM191.709 4.95801H183.974C181.921 4.95802 181.256 5.32393 181.256 6.11621C181.256 6.9088 181.678 6.93802 185.243 7.82422C189.394 8.85613 190.071 9.76662 190.793 10.7373L190.802 10.75C191.403 11.5574 192.494 13.86 191.286 17.1523C190.402 19.5596 187.358 20.5059 186.21 20.5059H173.098L174.186 15.4453C177.489 15.486 183.733 15.4453 184.518 15.4453C184.881 15.4453 185.243 15.2236 185.243 14.4697C185.243 13.9211 184.821 13.551 184.217 13.3721C182.364 12.8233 178.645 11.677 177.388 10.9941C175.636 10.042 174.484 7.20918 175.817 3.67773C177.014 0.50732 180.027 0.0398544 181.256 0.0195312H192.615L191.709 4.95801ZM162.11 4.96191L160.292 15.5977L160.275 15.6914H165.038C165.287 15.6914 165.694 15.6545 166.113 15.5439C166.531 15.4337 166.971 15.2475 167.276 14.9434C168.02 14.2016 168.935 12.7908 169.118 9.57324C169.209 7.97624 169.267 7.07347 169.227 6.49902C169.207 6.21045 169.162 5.99756 169.081 5.81738C168.999 5.63663 168.883 5.49345 168.731 5.3418C168.284 4.89598 167.711 4.89551 167.644 4.89551H162.121L162.11 4.96191Z" fill="white"/>
</svg>
